<svg xmlns="http://www.w3.org/2000/svg" viewBox="0 0 100 100">
  <defs>
    <linearGradient id="grad1" x1="0%" y1="0%" x2="100%" y2="100%">
      <stop offset="0%" style="stop-color:#6366f1;stop-opacity:1" />
      <stop offset="100%" style="stop-color:#8b5cf6;stop-opacity:1" />
    </linearGradient>
  </defs>
  
  <!-- Background Circle -->
  <circle cx="50" cy="50" r="48" fill="url(#grad1)"/>
  
  <!-- Chat Bubble 1 -->
  <path d="M 30 35 Q 30 25 40 25 L 55 25 Q 65 25 65 35 L 65 45 Q 65 55 55 55 L 45 55 L 40 60 L 40 55 Q 30 55 30 45 Z" 
        fill="white" opacity="0.9"/>
  
  <!-- Chat Bubble 2 -->
  <path d="M 35 50 Q 35 45 40 45 L 60 45 Q 70 45 70 55 L 70 65 Q 70 75 60 75 L 50 75 L 45 80 L 45 75 Q 35 75 35 65 Z" 
        fill="white" opacity="0.7"/>
  
  <!-- Connection Dots -->
  <circle cx="42" cy="35" r="2.5" fill="#6366f1"/>
  <circle cx="50" cy="35" r="2.5" fill="#6366f1"/>
  <circle cx="58" cy="35" r="2.5" fill="#6366f1"/>
</svg>
